<?plantuml 1.2026.1?><svg xmlns="http://www.w3.org/2000/svg" xmlns:xlink="http://www.w3.org/1999/xlink" contentStyleType="text/css" data-diagram-type="DESCRIPTION" height="1417px" preserveAspectRatio="none" style="width:747px;height:1417px;background:#FFFFFF;" version="1.1" viewBox="0 0 747 1417" width="747px" zoomAndPan="magnify"><title>Diagramme de d&#233;ploiement - On-Premise HA (Load Balancer externe + NGINX Ingress dans K8s, 2 serveurs)</title><defs/><g><g class="title" data-source-line="1"><text fill="#000000" font-family="sans-serif" font-size="14" font-weight="bold" lengthAdjust="spacing" textLength="719.3047" x="10" y="24.5332">Diagramme de d&#233;ploiement - On-Premise HA (Load Balancer externe + NGINX Ingress dans K8s, 2 serveurs)</text></g><!--cluster client--><g class="cluster" data-qualified-name="client" data-source-line="3" id="ent0002"><polygon fill="none" points="327.6523,54.6094,337.6523,44.6094,518.6523,44.6094,518.6523,155.6094,508.6523,165.6094,327.6523,165.6094,327.6523,54.6094" style="stroke:#181818;stroke-width:1;"/><line style="stroke:#181818;stroke-width:1;" x1="508.6523" x2="518.6523" y1="54.6094" y2="44.6094"/><line style="stroke:#181818;stroke-width:1;" x1="327.6523" x2="508.6523" y1="54.6094" y2="54.6094"/><line style="stroke:#181818;stroke-width:1;" x1="508.6523" x2="508.6523" y1="54.6094" y2="165.6094"/><text fill="#000000" font-family="sans-serif" font-size="14" font-weight="bold" lengthAdjust="spacing" textLength="87.9238" x="375.1904" y="72.1426">Client Device</text></g><!--cluster lb--><g class="cluster" data-qualified-name="lb" data-source-line="7" id="ent0004"><polygon fill="none" points="327.6523,215.6094,337.6523,205.6094,562.6523,205.6094,562.6523,316.6094,552.6523,326.6094,327.6523,326.6094,327.6523,215.6094" style="stroke:#181818;stroke-width:1;"/><line style="stroke:#181818;stroke-width:1;" x1="552.6523" x2="562.6523" y1="215.6094" y2="205.6094"/><line style="stroke:#181818;stroke-width:1;" x1="327.6523" x2="552.6523" y1="215.6094" y2="215.6094"/><line style="stroke:#181818;stroke-width:1;" x1="552.6523" x2="552.6523" y1="215.6094" y2="326.6094"/><text fill="#000000" font-family="sans-serif" font-size="14" font-weight="bold" lengthAdjust="spacing" textLength="96.4756" x="392.9146" y="233.1426">Load Balancer</text></g><!--cluster On-Premise Server 1--><g class="cluster" data-qualified-name="On-Premise Server 1" data-source-line="11" id="ent0006"><polygon fill="none" points="118.6523,368.6094,128.6523,358.6094,633.6523,358.6094,633.6523,1115.6094,623.6523,1125.6094,118.6523,1125.6094,118.6523,368.6094" style="stroke:#181818;stroke-width:1;"/><line style="stroke:#181818;stroke-width:1;" x1="623.6523" x2="633.6523" y1="368.6094" y2="358.6094"/><line style="stroke:#181818;stroke-width:1;" x1="118.6523" x2="623.6523" y1="368.6094" y2="368.6094"/><line style="stroke:#181818;stroke-width:1;" x1="623.6523" x2="623.6523" y1="368.6094" y2="1125.6094"/><text fill="#000000" font-family="sans-serif" font-size="14" font-weight="bold" lengthAdjust="spacing" textLength="137.7441" x="303.2803" y="386.1426">On-Premise Server 1</text></g><!--cluster Kubernetes Node 1--><g class="cluster" data-qualified-name="On-Premise Server 1.Kubernetes Node 1" data-source-line="12" id="ent0007"><polygon fill="none" points="142.6523,417.6094,152.6523,407.6094,609.6523,407.6094,609.6523,1091.6094,599.6523,1101.6094,142.6523,1101.6094,142.6523,417.6094" style="stroke:#181818;stroke-width:1;"/><line style="stroke:#181818;stroke-width:1;" x1="599.6523" x2="609.6523" y1="417.6094" y2="407.6094"/><line style="stroke:#181818;stroke-width:1;" x1="142.6523" x2="599.6523" y1="417.6094" y2="417.6094"/><line style="stroke:#181818;stroke-width:1;" x1="599.6523" x2="599.6523" y1="417.6094" y2="1101.6094"/><text fill="#000000" font-family="sans-serif" font-size="14" font-weight="bold" lengthAdjust="spacing" textLength="127.5859" x="308.3594" y="435.1426">Kubernetes Node 1</text></g><!--cluster NGINX Ingress Pod--><g class="cluster" data-qualified-name="On-Premise Server 1.Kubernetes Node 1.NGINX Ingress Pod" data-source-line="13" id="ent0008"><polygon fill="none" points="241.6523,466.6094,251.6523,456.6094,445.6523,456.6094,445.6523,551.6094,435.6523,561.6094,241.6523,561.6094,241.6523,466.6094" style="stroke:#181818;stroke-width:1;"/><line style="stroke:#181818;stroke-width:1;" x1="435.6523" x2="445.6523" y1="466.6094" y2="456.6094"/><line style="stroke:#181818;stroke-width:1;" x1="241.6523" x2="435.6523" y1="466.6094" y2="466.6094"/><line style="stroke:#181818;stroke-width:1;" x1="435.6523" x2="435.6523" y1="466.6094" y2="561.6094"/><text fill="#000000" font-family="sans-serif" font-size="14" font-weight="bold" lengthAdjust="spacing" textLength="128.3584" x="275.4731" y="484.1426">NGINX Ingress Pod</text></g><!--cluster Web Pod--><g class="cluster" data-qualified-name="On-Premise Server 1.Kubernetes Node 1.Web Pod" data-source-line="16" id="ent0010"><polygon fill="none" points="253.6523,595.6094,263.6523,585.6094,417.6523,585.6094,417.6523,680.6094,407.6523,690.6094,253.6523,690.6094,253.6523,595.6094" style="stroke:#181818;stroke-width:1;"/><line style="stroke:#181818;stroke-width:1;" x1="407.6523" x2="417.6523" y1="595.6094" y2="585.6094"/><line style="stroke:#181818;stroke-width:1;" x1="253.6523" x2="407.6523" y1="595.6094" y2="595.6094"/><line style="stroke:#181818;stroke-width:1;" x1="407.6523" x2="407.6523" y1="595.6094" y2="690.6094"/><text fill="#000000" font-family="sans-serif" font-size="14" font-weight="bold" lengthAdjust="spacing" textLength="59.8828" x="301.7109" y="613.1426">Web Pod</text></g><!--cluster App Pod--><g class="cluster" data-qualified-name="On-Premise Server 1.Kubernetes Node 1.App Pod" data-source-line="19" id="ent0012"><polygon fill="none" points="252.6523,724.6094,262.6523,714.6094,418.6523,714.6094,418.6523,809.6094,408.6523,819.6094,252.6523,819.6094,252.6523,724.6094" style="stroke:#181818;stroke-width:1;"/><line style="stroke:#181818;stroke-width:1;" x1="408.6523" x2="418.6523" y1="724.6094" y2="714.6094"/><line style="stroke:#181818;stroke-width:1;" x1="252.6523" x2="408.6523" y1="724.6094" y2="724.6094"/><line style="stroke:#181818;stroke-width:1;" x1="408.6523" x2="408.6523" y1="724.6094" y2="819.6094"/><text fill="#000000" font-family="sans-serif" font-size="14" font-weight="bold" lengthAdjust="spacing" textLength="57.5449" x="302.8799" y="742.1426">App Pod</text></g><!--cluster Catalog Pod--><g class="cluster" data-qualified-name="On-Premise Server 1.Kubernetes Node 1.Catalog Pod" data-source-line="22" id="ent0014"><polygon fill="none" points="166.6523,853.6094,176.6523,843.6094,585.6523,843.6094,585.6523,938.6094,575.6523,948.6094,166.6523,948.6094,166.6523,853.6094" style="stroke:#181818;stroke-width:1;"/><line style="stroke:#181818;stroke-width:1;" x1="575.6523" x2="585.6523" y1="853.6094" y2="843.6094"/><line style="stroke:#181818;stroke-width:1;" x1="166.6523" x2="575.6523" y1="853.6094" y2="853.6094"/><line style="stroke:#181818;stroke-width:1;" x1="575.6523" x2="575.6523" y1="853.6094" y2="948.6094"/><text fill="#000000" font-family="sans-serif" font-size="14" font-weight="bold" lengthAdjust="spacing" textLength="81.6689" x="331.3179" y="871.1426">Catalog Pod</text></g><!--cluster Postgres Pod (Primary)--><g class="cluster" data-qualified-name="On-Premise Server 1.Kubernetes Node 1.Postgres Pod .Primary." data-source-line="26" id="ent0017"><polygon fill="none" points="258.6523,982.6094,268.6523,972.6094,492.6523,972.6094,492.6523,1067.6094,482.6523,1077.6094,258.6523,1077.6094,258.6523,982.6094" style="stroke:#181818;stroke-width:1;"/><line style="stroke:#181818;stroke-width:1;" x1="482.6523" x2="492.6523" y1="982.6094" y2="972.6094"/><line style="stroke:#181818;stroke-width:1;" x1="258.6523" x2="482.6523" y1="982.6094" y2="982.6094"/><line style="stroke:#181818;stroke-width:1;" x1="482.6523" x2="482.6523" y1="982.6094" y2="1077.6094"/><text fill="#000000" font-family="sans-serif" font-size="14" font-weight="bold" lengthAdjust="spacing" textLength="155.5996" x="293.8525" y="1000.1426">Postgres Pod (Primary)</text></g><!--cluster On-Premise Server 2--><g class="cluster" data-qualified-name="On-Premise Server 2" data-source-line="32" id="ent0019"><polygon fill="none" points="211.6523,1159.6094,221.6523,1149.6094,539.6523,1149.6094,539.6523,1390.6094,529.6523,1400.6094,211.6523,1400.6094,211.6523,1159.6094" style="stroke:#181818;stroke-width:1;"/><line style="stroke:#181818;stroke-width:1;" x1="529.6523" x2="539.6523" y1="1159.6094" y2="1149.6094"/><line style="stroke:#181818;stroke-width:1;" x1="211.6523" x2="529.6523" y1="1159.6094" y2="1159.6094"/><line style="stroke:#181818;stroke-width:1;" x1="529.6523" x2="529.6523" y1="1159.6094" y2="1400.6094"/><text fill="#000000" font-family="sans-serif" font-size="14" font-weight="bold" lengthAdjust="spacing" textLength="137.7441" x="302.7803" y="1177.1426">On-Premise Server 2</text></g><!--cluster Kubernetes Node 2--><g class="cluster" data-qualified-name="On-Premise Server 2.Kubernetes Node 2" data-source-line="33" id="ent0020"><polygon fill="none" points="235.6523,1208.6094,245.6523,1198.6094,515.6523,1198.6094,515.6523,1366.6094,505.6523,1376.6094,235.6523,1376.6094,235.6523,1208.6094" style="stroke:#181818;stroke-width:1;"/><line style="stroke:#181818;stroke-width:1;" x1="505.6523" x2="515.6523" y1="1208.6094" y2="1198.6094"/><line style="stroke:#181818;stroke-width:1;" x1="235.6523" x2="505.6523" y1="1208.6094" y2="1208.6094"/><line style="stroke:#181818;stroke-width:1;" x1="505.6523" x2="505.6523" y1="1208.6094" y2="1376.6094"/><text fill="#000000" font-family="sans-serif" font-size="14" font-weight="bold" lengthAdjust="spacing" textLength="127.5859" x="307.8594" y="1226.1426">Kubernetes Node 2</text></g><!--cluster Postgres Pod (Replica)--><g class="cluster" data-qualified-name="On-Premise Server 2.Kubernetes Node 2.Postgres Pod .Replica." data-source-line="37" id="ent0021"><polygon fill="none" points="259.6523,1257.6094,269.6523,1247.6094,491.6523,1247.6094,491.6523,1342.6094,481.6523,1352.6094,259.6523,1352.6094,259.6523,1257.6094" style="stroke:#181818;stroke-width:1;"/><line style="stroke:#181818;stroke-width:1;" x1="481.6523" x2="491.6523" y1="1257.6094" y2="1247.6094"/><line style="stroke:#181818;stroke-width:1;" x1="259.6523" x2="481.6523" y1="1257.6094" y2="1257.6094"/><line style="stroke:#181818;stroke-width:1;" x1="481.6523" x2="481.6523" y1="1257.6094" y2="1352.6094"/><text fill="#000000" font-family="sans-serif" font-size="14" font-weight="bold" lengthAdjust="spacing" textLength="153.2549" x="295.0249" y="1275.1426">Postgres Pod (Replica)</text></g><!--entity Web Browser--><g class="entity" data-qualified-name="client.Web Browser" data-source-line="4" id="ent0003"><rect fill="#F1F1F1" height="47.6094" rx="2.5" ry="2.5" style="stroke:#181818;stroke-width:0.5;" width="124.0205" x="370.6523" y="93.6094"/><rect fill="#F1F1F1" height="10" style="stroke:#181818;stroke-width:0.5;" width="15" x="474.6729" y="98.6094"/><rect fill="#F1F1F1" height="2" style="stroke:#181818;stroke-width:0.5;" width="4" x="472.6729" y="100.6094"/><rect fill="#F1F1F1" height="2" style="stroke:#181818;stroke-width:0.5;" width="4" x="472.6729" y="104.6094"/><text fill="#000000" font-family="sans-serif" font-size="14" lengthAdjust="spacing" textLength="84.0205" x="385.6523" y="128.1426">Web Browser</text></g><!--entity HAProxy / F5 / autre--><g class="entity" data-qualified-name="lb.HAProxy . F5 . autre" data-source-line="8" id="ent0005"><rect fill="#F1F1F1" height="47.6094" rx="2.5" ry="2.5" style="stroke:#181818;stroke-width:0.5;" width="166.8203" x="371.1523" y="254.6094"/><rect fill="#F1F1F1" height="10" style="stroke:#181818;stroke-width:0.5;" width="15" x="517.9727" y="259.6094"/><rect fill="#F1F1F1" height="2" style="stroke:#181818;stroke-width:0.5;" width="4" x="515.9727" y="261.6094"/><rect fill="#F1F1F1" height="2" style="stroke:#181818;stroke-width:0.5;" width="4" x="515.9727" y="265.6094"/><text fill="#000000" font-family="sans-serif" font-size="14" lengthAdjust="spacing" textLength="126.8203" x="386.1523" y="289.1426">HAProxy / F5 / autre</text></g><!--entity NGINX Ingress--><g class="entity" data-qualified-name="On-Premise Server 1.Kubernetes Node 1.NGINX Ingress Pod.NGINX Ingress" data-source-line="14" id="ent0009"><rect fill="#F1F1F1" height="47.6094" rx="2.5" ry="2.5" style="stroke:#181818;stroke-width:0.5;" width="134.1377" x="268.6523" y="497.6094"/><rect fill="#F1F1F1" height="10" style="stroke:#181818;stroke-width:0.5;" width="15" x="382.79" y="502.6094"/><rect fill="#F1F1F1" height="2" style="stroke:#181818;stroke-width:0.5;" width="4" x="380.79" y="504.6094"/><rect fill="#F1F1F1" height="2" style="stroke:#181818;stroke-width:0.5;" width="4" x="380.79" y="508.6094"/><text fill="#000000" font-family="sans-serif" font-size="14" lengthAdjust="spacing" textLength="94.1377" x="283.6523" y="532.1426">NGINX Ingress</text></g><!--entity UI Front Office--><g class="entity" data-qualified-name="On-Premise Server 1.Kubernetes Node 1.Web Pod.UI Front Office" data-source-line="17" id="ent0011"><rect fill="#F1F1F1" height="47.6094" rx="2.5" ry="2.5" style="stroke:#181818;stroke-width:0.5;" width="131.0205" x="270.1523" y="626.6094"/><rect fill="#F1F1F1" height="10" style="stroke:#181818;stroke-width:0.5;" width="15" x="381.1729" y="631.6094"/><rect fill="#F1F1F1" height="2" style="stroke:#181818;stroke-width:0.5;" width="4" x="379.1729" y="633.6094"/><rect fill="#F1F1F1" height="2" style="stroke:#181818;stroke-width:0.5;" width="4" x="379.1729" y="637.6094"/><text fill="#000000" font-family="sans-serif" font-size="14" lengthAdjust="spacing" textLength="91.0205" x="285.1523" y="661.1426">UI Front Office</text></g><!--entity Library Service--><g class="entity" data-qualified-name="On-Premise Server 1.Kubernetes Node 1.App Pod.Library Service" data-source-line="20" id="ent0013"><rect fill="#F1F1F1" height="47.6094" rx="2.5" ry="2.5" style="stroke:#181818;stroke-width:0.5;" width="133.3652" x="269.1523" y="755.6094"/><rect fill="#F1F1F1" height="10" style="stroke:#181818;stroke-width:0.5;" width="15" x="382.5176" y="760.6094"/><rect fill="#F1F1F1" height="2" style="stroke:#181818;stroke-width:0.5;" width="4" x="380.5176" y="762.6094"/><rect fill="#F1F1F1" height="2" style="stroke:#181818;stroke-width:0.5;" width="4" x="380.5176" y="766.6094"/><text fill="#000000" font-family="sans-serif" font-size="14" lengthAdjust="spacing" textLength="93.3652" x="284.1523" y="790.1426">Library Service</text></g><!--entity BookCatalog Service--><g class="entity" data-qualified-name="On-Premise Server 1.Kubernetes Node 1.Catalog Pod.BookCatalog Service" data-source-line="23" id="ent0015"><rect fill="#F1F1F1" height="47.6094" rx="2.5" ry="2.5" style="stroke:#181818;stroke-width:0.5;" width="170.7373" x="398.1523" y="884.6094"/><rect fill="#F1F1F1" height="10" style="stroke:#181818;stroke-width:0.5;" width="15" x="548.8896" y="889.6094"/><rect fill="#F1F1F1" height="2" style="stroke:#181818;stroke-width:0.5;" width="4" x="546.8896" y="891.6094"/><rect fill="#F1F1F1" height="2" style="stroke:#181818;stroke-width:0.5;" width="4" x="546.8896" y="895.6094"/><text fill="#000000" font-family="sans-serif" font-size="14" lengthAdjust="spacing" textLength="130.7373" x="413.1523" y="919.1426">BookCatalog Service</text></g><!--entity AuthorCatalog Service--><g class="entity" data-qualified-name="On-Premise Server 1.Kubernetes Node 1.Catalog Pod.AuthorCatalog Service" data-source-line="24" id="ent0016"><rect fill="#F1F1F1" height="47.6094" rx="2.5" ry="2.5" style="stroke:#181818;stroke-width:0.5;" width="180.0752" x="182.6523" y="884.6094"/><rect fill="#F1F1F1" height="10" style="stroke:#181818;stroke-width:0.5;" width="15" x="342.7275" y="889.6094"/><rect fill="#F1F1F1" height="2" style="stroke:#181818;stroke-width:0.5;" width="4" x="340.7275" y="891.6094"/><rect fill="#F1F1F1" height="2" style="stroke:#181818;stroke-width:0.5;" width="4" x="340.7275" y="895.6094"/><text fill="#000000" font-family="sans-serif" font-size="14" lengthAdjust="spacing" textLength="140.0752" x="197.6523" y="919.1426">AuthorCatalog Service</text></g><!--entity PostgreSQL DB (Primary)--><g class="entity" data-qualified-name="On-Premise Server 1.Kubernetes Node 1.Postgres Pod .Primary..PostgreSQL DB .Primary." data-source-line="27" id="ent0018"><rect fill="#F1F1F1" height="47.6094" rx="2.5" ry="2.5" style="stroke:#181818;stroke-width:0.5;" width="201.0342" x="275.1523" y="1013.6094"/><rect fill="#F1F1F1" height="10" style="stroke:#181818;stroke-width:0.5;" width="15" x="456.1865" y="1018.6094"/><rect fill="#F1F1F1" height="2" style="stroke:#181818;stroke-width:0.5;" width="4" x="454.1865" y="1020.6094"/><rect fill="#F1F1F1" height="2" style="stroke:#181818;stroke-width:0.5;" width="4" x="454.1865" y="1024.6094"/><text fill="#000000" font-family="sans-serif" font-size="14" lengthAdjust="spacing" textLength="161.0342" x="290.1523" y="1048.1426">PostgreSQL DB (Primary)</text></g><!--entity PostgreSQL DB (Replica)--><g class="entity" data-qualified-name="On-Premise Server 2.Kubernetes Node 2.Postgres Pod .Replica..PostgreSQL DB .Replica." data-source-line="38" id="ent0022"><rect fill="#F1F1F1" height="47.6094" rx="2.5" ry="2.5" style="stroke:#181818;stroke-width:0.5;" width="199.5029" x="275.6523" y="1288.6094"/><rect fill="#F1F1F1" height="10" style="stroke:#181818;stroke-width:0.5;" width="15" x="455.1553" y="1293.6094"/><rect fill="#F1F1F1" height="2" style="stroke:#181818;stroke-width:0.5;" width="4" x="453.1553" y="1295.6094"/><rect fill="#F1F1F1" height="2" style="stroke:#181818;stroke-width:0.5;" width="4" x="453.1553" y="1299.6094"/><text fill="#000000" font-family="sans-serif" font-size="14" lengthAdjust="spacing" textLength="159.5029" x="290.6523" y="1323.1426">PostgreSQL DB (Replica)</text></g><!--link client to lb--><g class="link" data-entity-1="ent0002" data-entity-2="ent0004" data-link-type="dependency" data-source-line="43" id="lnk23"><path d="M335.6523,166.4406 C335.6523,167.555 335.6523,168.6793 335.6523,169.8125 C335.6523,178.8777 335.6523,188.5075 335.6523,198.1369 C335.6523,200.5442 335.6523,196.9515 335.6523,199.35" fill="none" id="client-to-lb" style="stroke:#181818;stroke-width:1;"/><polygon fill="#181818" points="335.6523,205.35,339.6523,196.35,335.6523,200.35,331.6523,196.35,335.6523,205.35" style="stroke:#181818;stroke-width:1;"/></g><!--link lb to NGINX Ingress--><g class="link" data-entity-1="ent0004" data-entity-2="ent0009" data-link-type="dependency" data-source-line="44" id="lnk24"><path d="M335.6523,327.4847 C335.6523,327.7925 335.6523,328.1012 335.6523,328.411 C335.6523,329.0305 335.6523,329.654 335.6523,330.2813 C335.6523,331.536 335.6523,332.806 335.6523,334.0906 C335.6523,344.367 335.6523,355.57 335.6523,367.2169 C335.6523,413.8044 335.6523,461.4944 335.6523,491.3994" fill="none" id="lb-to-NGINX Ingress" style="stroke:#181818;stroke-width:1;"/><polygon fill="#181818" points="335.6523,497.3994,339.6523,488.3994,335.6523,492.3994,331.6523,488.3994,335.6523,497.3994" style="stroke:#181818;stroke-width:1;"/></g><!--link NGINX Ingress to UI Front Office--><g class="link" data-entity-1="ent0009" data-entity-2="ent0011" data-link-type="dependency" data-source-line="45" id="lnk25"><path d="M335.6523,545.8994 C335.6523,568.8194 335.6523,597.5994 335.6523,620.4594" fill="none" id="NGINX Ingress-to-UI Front Office" style="stroke:#181818;stroke-width:1;"/><polygon fill="#181818" points="335.6523,626.4594,339.6523,617.4594,335.6523,621.4594,331.6523,617.4594,335.6523,626.4594" style="stroke:#181818;stroke-width:1;"/></g><!--link UI Front Office to Library Service--><g class="link" data-entity-1="ent0011" data-entity-2="ent0013" data-link-type="dependency" data-source-line="46" id="lnk26"><path d="M335.6523,674.8994 C335.6523,697.8194 335.6523,726.5994 335.6523,749.4594" fill="none" id="UI Front Office-to-Library Service" style="stroke:#181818;stroke-width:1;"/><polygon fill="#181818" points="335.6523,755.4594,339.6523,746.4594,335.6523,750.4594,331.6523,746.4594,335.6523,755.4594" style="stroke:#181818;stroke-width:1;"/></g><!--link Library Service to BookCatalog Service--><g class="link" data-entity-1="ent0013" data-entity-2="ent0015" data-link-type="dependency" data-source-line="47" id="lnk27"><path d="M362.8023,803.8994 C389.5023,826.8194 425.4783,857.6929 452.1283,880.5529" fill="none" id="Library Service-to-BookCatalog Service" style="stroke:#181818;stroke-width:1;"/><polygon fill="#181818" points="456.6823,884.4594,452.4555,875.5637,452.8873,881.204,447.2469,881.6358,456.6823,884.4594" style="stroke:#181818;stroke-width:1;"/></g><!--link Library Service to AuthorCatalog Service--><g class="link" data-entity-1="ent0013" data-entity-2="ent0016" data-link-type="dependency" data-source-line="48" id="lnk28"><path d="M324.0923,803.8994 C312.7323,826.8194 298.1387,856.2244 286.7987,879.0844" fill="none" id="Library Service-to-AuthorCatalog Service" style="stroke:#181818;stroke-width:1;"/><polygon fill="#181818" points="284.1323,884.4594,291.7152,878.1744,286.3543,879.9802,284.5485,874.6193,284.1323,884.4594" style="stroke:#181818;stroke-width:1;"/></g><!--link BookCatalog Service to PostgreSQL DB (Primary)--><g class="link" data-entity-1="ent0015" data-entity-2="ent0018" data-link-type="dependency" data-source-line="49" id="lnk29"><path d="M463.8423,932.8994 C444.3523,955.8194 418.6704,986.0296 399.2204,1008.8896" fill="none" id="BookCatalog Service-to-PostgreSQL DB (Primary)" style="stroke:#181818;stroke-width:1;"/><polygon fill="#181818" points="395.3323,1013.4594,404.211,1009.1968,398.5724,1009.6512,398.118,1004.0127,395.3323,1013.4594" style="stroke:#181818;stroke-width:1;"/></g><!--link AuthorCatalog Service to PostgreSQL DB (Primary)--><g class="link" data-entity-1="ent0016" data-entity-2="ent0018" data-link-type="dependency" data-source-line="50" id="lnk30"><path d="M291.5423,932.8994 C310.1323,955.8194 334.5517,985.9403 353.1017,1008.8003" fill="none" id="AuthorCatalog Service-to-PostgreSQL DB (Primary)" style="stroke:#181818;stroke-width:1;"/><polygon fill="#181818" points="356.8823,1013.4594,354.3174,1003.9504,353.7318,1009.5768,348.1054,1008.9912,356.8823,1013.4594" style="stroke:#181818;stroke-width:1;"/></g><!--link PostgreSQL DB (Primary) to PostgreSQL DB (Replica)--><g class="link" data-entity-1="ent0018" data-entity-2="ent0022" data-link-type="dependency" data-source-line="51" id="lnk31"><path d="M375.6523,1067.8894 C375.6523,1119.4594 375.6523,1230.8694 375.6523,1282.3894" fill="none" id="PostgreSQL DB (Primary)-PostgreSQL DB (Replica)" style="stroke:#181818;stroke-width:1;"/><polygon fill="#181818" points="375.6523,1061.8894,371.6523,1070.8894,375.6523,1066.8894,379.6523,1070.8894,375.6523,1061.8894" style="stroke:#181818;stroke-width:1;"/><polygon fill="#181818" points="375.6523,1288.3894,379.6523,1279.3894,375.6523,1283.3894,371.6523,1279.3894,375.6523,1288.3894" style="stroke:#181818;stroke-width:1;"/></g><?plantuml-src jLFHQi8m57tlLrpwf6nbJ1ZiOGnQnIcATfEnlQRrwiBQfYIfKuOVjE_OZorfhRIsSNiPb9BSUyx9FRat8AcC40QKh3c9OuIb-hw_qeXHZ36HuC0ySNoECHK88nSwKqQMu968925omAr4dY1SmEnXF7k5SRBcA0GiII9WSYikeGS2-GOpBhgMbJ2bR_SZggK7kA4Xsa04X4Naqm88MPooHE_i5mp0u-n32TZMlcJN2iZPKN3A7Ba-PziTNC7mHlr89ZbM92gM5heu3jTsBb6a9rcWJKaKCDE1Gx9CrvtwR5ccQoNKK7QUtrT4j3SJzNaCGyxKQhvQwHjgaDqqDPAdDE24xt9ZhUG-aIHYQwE0nzXxYQc9r51k9jyORyLL3_EPaFe6z6dGyJcDLMtTrdCFqCNZ50PU1NlKt9zhOEzS0tl_qC2wioTC8ngIFpaxOklE3c_0SUxLG5jgflNgj8gJVO5fp4iZKk0Qez685BZM2J1W3NFGgb4mZ7qsQFt6CcNWherulFmV?></g></svg>